<?xml version="1.0" standalone="no"?>
<!DOCTYPE svg PUBLIC "-//W3C//DTD SVG 20010904//EN"
 "http://www.w3.org/TR/2001/REC-SVG-20010904/DTD/svg10.dtd">
<svg version="1.0" xmlns="http://www.w3.org/2000/svg"
 width="133" height="46" viewBox="0 0 8001.000000 2893.000000"
 preserveAspectRatio="xMidYMid meet">

<g transform="translate(0.000000,2893.000000) scale(0.100000,-0.100000)"
fill="#000000" stroke="none">
<path d="M19220 26411 l-124 -579 -22 54 c-27 68 -46 96 -103 158 -59 63 -145
119 -229 148 -58 20 -86 23 -212 23 -121 0 -158 -4 -224 -23 -400 -115 -718
-465 -839 -922 -29 -108 -30 -126 -31 -305 0 -175 2 -198 26 -287 85 -310 291
-507 577 -549 269 -39 566 73 776 292 74 78 78 80 71 49 -15 -78 -17 -138 -7
-178 34 -125 182 -181 395 -148 54 8 100 16 102 18 3 3 94 424 94 434 0 1 -14
5 -30 9 -44 10 -64 45 -57 103 3 26 111 546 241 1156 130 611 236 1113 236
1118 0 4 -116 8 -258 8 l-257 0 -125 -579z m-465 -661 c66 -32 165 -131 198
-200 56 -114 56 -136 -1 -408 -55 -269 -58 -276 -161 -380 -73 -73 -185 -145
-269 -173 -84 -29 -203 -31 -277 -6 -114 40 -205 143 -247 282 -27 87 -29 237
-4 339 21 88 83 220 140 301 89 125 238 234 361 264 70 18 203 8 260 -19z"/>
<path d="M46270 26411 l-124 -579 -22 54 c-27 68 -46 96 -103 158 -59 63 -145
119 -229 148 -58 20 -86 23 -212 23 -121 0 -158 -4 -224 -23 -400 -115 -718
-465 -839 -922 -29 -108 -30 -126 -31 -305 0 -175 2 -198 26 -287 85 -310 291
-507 577 -549 269 -39 566 73 776 292 74 78 78 80 71 49 -15 -78 -17 -138 -7
-178 34 -125 182 -181 395 -148 54 8 100 16 102 18 3 3 94 424 94 434 0 1 -14
5 -30 9 -44 10 -64 45 -57 103 3 26 111 546 241 1156 130 611 236 1113 236
1118 0 4 -116 8 -258 8 l-257 0 -125 -579z m-465 -661 c66 -32 165 -131 198
-200 56 -114 56 -136 -1 -408 -55 -269 -58 -276 -161 -380 -73 -73 -185 -145
-269 -173 -84 -29 -203 -31 -277 -6 -114 40 -205 143 -247 282 -27 87 -29 237
-4 339 21 88 83 220 140 301 89 125 238 234 361 264 70 18 203 8 260 -19z"/>
<path d="M60390 26411 l-124 -579 -22 54 c-27 68 -46 96 -103 158 -59 63 -145
119 -229 148 -58 20 -86 23 -212 23 -121 0 -158 -4 -224 -23 -400 -115 -718
-465 -839 -922 -29 -108 -30 -126 -31 -305 0 -175 2 -198 26 -287 85 -310 291
-507 577 -549 269 -39 566 73 776 292 74 78 78 80 71 49 -15 -78 -17 -138 -7
-178 34 -125 182 -181 395 -148 54 8 100 16 102 18 3 3 94 424 94 434 0 1 -14
5 -30 9 -44 10 -64 45 -57 103 3 26 111 546 241 1156 130 611 236 1113 236
1118 0 4 -116 8 -258 8 l-257 0 -125 -579z m-465 -661 c66 -32 165 -131 198
-200 56 -114 56 -136 -1 -408 -55 -269 -58 -276 -161 -380 -73 -73 -185 -145
-269 -173 -84 -29 -203 -31 -277 -6 -114 40 -205 143 -247 282 -27 87 -29 237
-4 339 21 88 83 220 140 301 89 125 238 234 361 264 70 18 203 8 260 -19z"/>
<path d="M64360 26938 c-253 -1179 -494 -2322 -502 -2385 -25 -181 38 -317
176 -382 136 -63 394 -51 644 30 l92 31 0 86 c0 48 3 137 7 199 l6 112 -53
-20 c-128 -49 -218 -45 -274 10 -61 61 -64 40 194 1256 126 600 232 1096 235
1103 3 9 -52 12 -254 12 l-259 0 -12 -52z"/>
<path d="M68341 26743 c-30 -137 -56 -254 -58 -260 -4 -10 51 -13 256 -13
l261 0 5 23 c15 62 105 482 105 489 0 4 -116 8 -258 8 l-258 0 -53 -247z"/>
<path d="M52115 26920 c-543 -58 -1050 -431 -1311 -965 -150 -309 -196 -634
-134 -955 67 -350 264 -627 545 -765 142 -70 231 -89 410 -89 119 0 168 4 235
21 161 41 341 132 478 243 35 28 65 50 67 48 2 -2 -9 -64 -25 -138 -16 -74
-30 -141 -30 -147 0 -10 51 -13 220 -13 121 0 220 3 220 6 0 10 290 1366 296
1387 5 16 -22 17 -478 17 l-483 0 -38 -177 c-21 -98 -41 -186 -43 -195 -5 -17
12 -18 256 -18 l262 0 -5 -22 c-3 -13 -13 -58 -22 -100 -16 -75 -18 -78 -84
-136 -201 -179 -394 -278 -592 -303 -222 -29 -415 55 -535 232 -99 147 -139
306 -131 524 6 158 31 275 91 421 118 288 349 522 610 617 69 26 99 31 206 34
149 6 229 -10 330 -63 118 -61 234 -205 257 -317 l8 -36 225 144 c124 79 229
146 233 147 11 5 -36 128 -74 194 -170 297 -534 450 -964 404z"/>
<path d="M4580 26902 c0 -5 -130 -623 -290 -1373 -159 -749 -290 -1364 -290
-1366 0 -2 119 -3 264 -3 l264 0 12 53 c22 101 180 858 180 862 0 2 168 5 373
8 319 3 381 6 437 22 231 64 453 218 602 419 72 96 149 252 185 371 23 80 26
108 27 245 1 133 -2 167 -22 239 -79 288 -274 478 -533 520 -77 13 -1209 15
-1209 3z m1041 -474 c54 -16 115 -71 144 -129 51 -99 52 -272 4 -417 -31 -93
-110 -205 -182 -258 -96 -71 -119 -75 -463 -72 l-300 3 63 295 c34 162 77 361
94 443 l32 147 285 0 c187 0 298 -4 323 -12z"/>
<path d="M25810 26902 c0 -5 -130 -623 -290 -1373 -159 -749 -290 -1364 -290
-1366 0 -2 119 -3 265 -3 146 0 265 2 265 4 0 2 54 255 120 562 66 308 120
562 120 567 0 4 230 7 510 7 281 0 510 3 510 8 0 7 72 344 85 400 l5 22 -505
0 c-397 0 -505 3 -505 13 0 6 32 163 70 347 39 184 70 338 70 343 0 4 277 7
615 7 338 0 615 1 615 3 0 2 23 106 50 232 28 126 50 230 50 232 0 2 -396 3
-880 3 -484 0 -880 -4 -880 -8z"/>
<path d="M35975 26838 c-6 -17 -135 -629 -135 -640 0 -4 -56 -8 -125 -8 -121
0 -125 -1 -130 -22 -3 -13 -23 -103 -44 -200 l-38 -178 124 0 c89 0 123 -3
123 -12 0 -7 -56 -278 -126 -603 -69 -324 -128 -618 -131 -652 -7 -70 10 -170
37 -223 37 -71 110 -122 225 -155 89 -26 325 -16 455 18 94 25 253 80 277 95
9 6 10 54 4 205 -5 109 -10 200 -13 202 -2 2 -44 -10 -93 -27 -72 -25 -107
-32 -172 -32 -98 -1 -130 17 -152 84 -13 42 -10 60 99 572 l113 528 202 0 202
0 37 178 c21 97 40 187 43 200 l5 22 -201 0 c-154 0 -201 3 -201 13 0 6 29
149 65 317 36 168 65 311 65 318 0 9 -58 12 -255 12 -196 0 -257 -3 -260 -12z"/>
<path d="M9178 26206 c-381 -67 -721 -321 -906 -675 -104 -198 -147 -387 -139
-606 6 -158 29 -255 91 -380 77 -155 172 -254 316 -329 199 -105 471 -123 740
-51 388 105 724 421 864 813 52 147 61 204 61 397 -1 192 -8 238 -62 375 -85
214 -274 379 -508 445 -82 23 -352 29 -457 11z m277 -457 c142 -67 220 -226
218 -444 -3 -295 -165 -568 -407 -685 -236 -114 -449 -54 -547 153 -42 89 -52
154 -47 297 4 106 10 139 35 212 83 240 261 422 473 484 72 21 214 13 275 -17z"/>
<path d="M13865 26214 c-280 -40 -530 -161 -731 -356 -186 -180 -302 -389
-360 -648 -27 -117 -24 -359 4 -475 74 -298 278 -509 567 -586 109 -30 340
-32 465 -5 295 64 568 228 739 445 23 30 38 57 34 61 -4 5 -96 35 -203 69
l-195 61 -14 -23 c-37 -57 -151 -154 -223 -190 -137 -68 -309 -85 -430 -42
-136 48 -228 212 -228 407 l0 77 143 -6 c175 -7 478 11 634 37 138 24 303 77
391 126 35 20 94 65 131 100 112 105 161 224 161 391 0 220 -90 373 -275 470
-129 67 -211 85 -410 88 -93 2 -183 1 -200 -1z m225 -384 c107 -30 169 -106
170 -206 0 -142 -113 -231 -343 -269 -110 -19 -535 -31 -556 -17 -11 8 -6 27
32 105 131 269 347 417 587 402 41 -2 91 -9 110 -15z"/>
<path d="M16205 26214 c-280 -40 -530 -161 -731 -356 -186 -180 -302 -389
-360 -648 -27 -117 -24 -359 4 -475 74 -298 278 -509 567 -586 109 -30 340
-32 465 -5 295 64 568 228 739 445 23 30 38 57 34 61 -4 5 -96 35 -203 69
l-195 61 -14 -23 c-37 -57 -151 -154 -223 -190 -137 -68 -309 -85 -430 -42
-136 48 -228 212 -228 407 l0 77 143 -6 c175 -7 478 11 634 37 138 24 303 77
391 126 35 20 94 65 131 100 112 105 161 224 161 391 0 220 -90 373 -275 470
-129 67 -211 85 -410 88 -93 2 -183 1 -200 -1z m225 -384 c107 -30 169 -106
170 -206 0 -142 -113 -231 -343 -269 -110 -19 -535 -31 -556 -17 -11 8 -6 27
32 105 131 269 347 417 587 402 41 -2 91 -9 110 -15z"/>
<path d="M21108 26206 c-381 -67 -721 -321 -906 -675 -104 -198 -147 -387
-139 -606 6 -158 29 -255 91 -380 77 -155 172 -254 316 -329 199 -105 471
-123 740 -51 388 105 724 421 864 813 52 147 61 204 61 397 -1 192 -8 238 -62
375 -85 214 -274 379 -508 445 -82 23 -352 29 -457 11z m277 -457 c142 -67
220 -226 218 -444 -3 -295 -165 -568 -407 -685 -236 -114 -449 -54 -547 153
-42 89 -52 154 -47 297 4 106 10 139 35 212 83 240 261 422 473 484 72 21 214
13 275 -17z"/>
<path d="M28585 26214 c-280 -40 -530 -161 -731 -356 -186 -180 -302 -389
-360 -648 -27 -117 -24 -359 4 -475 74 -298 278 -509 567 -586 109 -30 340
-32 465 -5 295 64 568 228 739 445 23 30 38 57 34 61 -4 5 -96 35 -203 69
l-195 61 -14 -23 c-37 -57 -151 -154 -223 -190 -137 -68 -309 -85 -430 -42
-136 48 -228 212 -228 407 l0 77 143 -6 c175 -7 478 11 634 37 138 24 303 77
391 126 35 20 94 65 131 100 112 105 161 224 161 391 0 220 -90 373 -275 470
-129 67 -211 85 -410 88 -93 2 -183 1 -200 -1z m225 -384 c107 -30 169 -106
170 -206 0 -142 -113 -231 -343 -269 -110 -19 -535 -31 -556 -17 -11 8 -6 27
32 105 131 269 347 417 587 402 41 -2 91 -9 110 -15z"/>
<path d="M34165 26214 c-280 -40 -530 -161 -731 -356 -186 -180 -302 -389
-360 -648 -27 -117 -24 -359 4 -475 74 -298 278 -509 567 -586 109 -30 340
-32 465 -5 295 64 568 228 739 445 23 30 38 57 34 61 -4 5 -96 35 -203 69
l-195 61 -14 -23 c-37 -57 -151 -154 -223 -190 -137 -68 -309 -85 -430 -42
-136 48 -228 212 -228 407 l0 77 143 -6 c175 -7 478 11 634 37 138 24 303 77
391 126 35 20 94 65 131 100 112 105 161 224 161 391 0 220 -90 373 -275 470
-129 67 -211 85 -410 88 -93 2 -183 1 -200 -1z m225 -384 c107 -30 169 -106
170 -206 0 -142 -113 -231 -343 -269 -110 -19 -535 -31 -556 -17 -11 8 -6 27
32 105 131 269 347 417 587 402 41 -2 91 -9 110 -15z"/>
<path d="M38085 26214 c-280 -40 -530 -161 -731 -356 -186 -180 -302 -389
-360 -648 -27 -117 -24 -359 4 -475 74 -298 278 -509 567 -586 109 -30 340
-32 465 -5 295 64 568 228 739 445 23 30 38 57 34 61 -4 5 -96 35 -203 69
l-195 61 -14 -23 c-37 -57 -151 -154 -223 -190 -137 -68 -309 -85 -430 -42
-136 48 -228 212 -228 407 l0 77 143 -6 c175 -7 478 11 634 37 138 24 303 77
391 126 35 20 94 65 131 100 112 105 161 224 161 391 0 220 -90 373 -275 470
-129 67 -211 85 -410 88 -93 2 -183 1 -200 -1z m225 -384 c107 -30 169 -106
170 -206 0 -142 -113 -231 -343 -269 -110 -19 -535 -31 -556 -17 -11 8 -6 27
32 105 131 269 347 417 587 402 41 -2 91 -9 110 -15z"/>
<path d="M41928 26206 c-381 -67 -721 -321 -906 -675 -104 -198 -147 -387
-139 -606 6 -158 29 -255 91 -380 77 -155 172 -254 316 -329 199 -105 471
-123 740 -51 388 105 724 421 864 813 52 147 61 204 61 397 -1 192 -8 238 -62
375 -85 214 -274 379 -508 445 -82 23 -352 29 -457 11z m277 -457 c142 -67
220 -226 218 -444 -3 -295 -165 -568 -407 -685 -236 -114 -449 -54 -547 153
-42 89 -52 154 -47 297 4 106 10 139 35 212 83 240 261 422 473 484 72 21 214
13 275 -17z"/>
<path d="M48215 26214 c-280 -40 -530 -161 -731 -356 -186 -180 -302 -389
-360 -648 -27 -117 -24 -359 4 -475 74 -298 278 -509 567 -586 109 -30 340
-32 465 -5 295 64 568 228 739 445 23 30 38 57 34 61 -4 5 -96 35 -203 69
l-195 61 -14 -23 c-37 -57 -151 -154 -223 -190 -137 -68 -309 -85 -430 -42
-136 48 -228 212 -228 407 l0 77 143 -6 c175 -7 478 11 634 37 138 24 303 77
391 126 35 20 94 65 131 100 112 105 161 224 161 391 0 220 -90 373 -275 470
-129 67 -211 85 -410 88 -93 2 -183 1 -200 -1z m225 -384 c107 -30 169 -106
170 -206 0 -142 -113 -231 -343 -269 -110 -19 -535 -31 -556 -17 -11 8 -6 27
32 105 131 269 347 417 587 402 41 -2 91 -9 110 -15z"/>
<path d="M56910 26205 c-421 -94 -765 -455 -893 -935 -29 -108 -30 -126 -31
-305 0 -175 2 -198 26 -287 85 -310 291 -507 577 -549 269 -39 566 73 774 290
l77 81 -7 -42 c-27 -151 6 -237 110 -287 81 -39 156 -46 281 -27 54 8 100 16
102 18 3 3 94 424 94 434 0 1 -14 5 -30 9 -44 10 -64 45 -57 103 3 26 73 366
156 755 83 389 151 710 151 712 0 3 -116 5 -259 5 l-258 0 -38 -174 -39 -175
-22 55 c-56 139 -177 250 -330 305 -78 28 -288 36 -384 14z m395 -455 c66 -32
165 -131 198 -200 56 -114 56 -136 -1 -408 -55 -269 -58 -276 -161 -380 -73
-73 -185 -145 -269 -173 -84 -29 -203 -31 -277 -6 -114 40 -205 143 -247 282
-27 87 -29 237 -4 339 21 88 83 220 140 301 89 125 238 234 361 264 70 18 203
8 260 -19z"/>
<path d="M62150 26205 c-421 -94 -765 -455 -893 -935 -29 -108 -30 -126 -31
-305 0 -175 2 -198 26 -287 85 -310 291 -507 577 -549 269 -39 566 73 774 290
l77 81 -7 -42 c-27 -151 6 -237 110 -287 81 -39 156 -46 281 -27 54 8 100 16
102 18 3 3 94 424 94 434 0 1 -14 5 -30 9 -44 10 -64 45 -57 103 3 26 73 366
156 755 83 389 151 710 151 712 0 3 -116 5 -259 5 l-258 0 -38 -174 -39 -175
-22 55 c-56 139 -177 250 -330 305 -78 28 -288 36 -384 14z m395 -455 c66 -32
165 -131 198 -200 56 -114 56 -136 -1 -408 -55 -269 -58 -276 -161 -380 -73
-73 -185 -145 -269 -173 -84 -29 -203 -31 -277 -6 -114 40 -205 143 -247 282
-27 87 -29 237 -4 339 21 88 83 220 140 301 89 125 238 234 361 264 70 18 203
8 260 -19z"/>
<path d="M66160 26205 c-421 -94 -765 -455 -893 -935 -29 -108 -30 -126 -31
-305 0 -175 2 -198 26 -287 85 -310 291 -507 577 -549 269 -39 566 73 774 290
l77 81 -7 -42 c-27 -151 6 -237 110 -287 81 -39 156 -46 281 -27 54 8 100 16
102 18 3 3 94 424 94 434 0 1 -14 5 -30 9 -44 10 -64 45 -57 103 3 26 73 366
156 755 83 389 151 710 151 712 0 3 -116 5 -259 5 l-258 0 -38 -174 -39 -175
-22 55 c-56 139 -177 250 -330 305 -78 28 -288 36 -384 14z m395 -455 c66 -32
165 -131 198 -200 56 -114 56 -136 -1 -408 -55 -269 -58 -276 -161 -380 -73
-73 -185 -145 -269 -173 -84 -29 -203 -31 -277 -6 -114 40 -205 143 -247 282
-27 87 -29 237 -4 339 21 88 83 220 140 301 89 125 238 234 361 264 70 18 203
8 260 -19z"/>
<path d="M69990 26205 c-421 -94 -765 -455 -893 -935 -29 -108 -30 -126 -31
-305 0 -175 2 -198 26 -287 85 -310 291 -507 577 -549 269 -39 566 73 774 290
l77 81 -7 -42 c-27 -151 6 -237 110 -287 81 -39 156 -46 281 -27 54 8 100 16
102 18 3 3 94 424 94 434 0 1 -14 5 -30 9 -44 10 -64 45 -57 103 3 26 73 366
156 755 83 389 151 710 151 712 0 3 -116 5 -259 5 l-258 0 -38 -174 -39 -175
-22 55 c-56 139 -177 250 -330 305 -78 28 -288 36 -384 14z m395 -455 c66 -32
165 -131 198 -200 56 -114 56 -136 -1 -408 -55 -269 -58 -276 -161 -380 -73
-73 -185 -145 -269 -173 -84 -29 -203 -31 -277 -6 -114 40 -205 143 -247 282
-27 87 -29 237 -4 339 21 88 83 220 140 301 89 125 238 234 361 264 70 18 203
8 260 -19z"/>
<path d="M74190 26205 c-421 -94 -765 -455 -893 -935 -29 -108 -30 -126 -31
-305 0 -175 2 -198 26 -287 85 -310 291 -507 577 -549 269 -39 566 73 774 290
l77 81 -7 -42 c-27 -151 6 -237 110 -287 81 -39 156 -46 281 -27 54 8 100 16
102 18 3 3 94 424 94 434 0 1 -14 5 -30 9 -44 10 -64 45 -57 103 3 26 73 366
156 755 83 389 151 710 151 712 0 3 -116 5 -259 5 l-258 0 -38 -174 -39 -175
-22 55 c-56 139 -177 250 -330 305 -78 28 -288 36 -384 14z m395 -455 c66 -32
165 -131 198 -200 56 -114 56 -136 -1 -408 -55 -269 -58 -276 -161 -380 -73
-73 -185 -145 -269 -173 -84 -29 -203 -31 -277 -6 -114 40 -205 143 -247 282
-27 87 -29 237 -4 339 21 88 83 220 140 301 89 125 238 234 361 264 70 18 203
8 260 -19z"/>
<path d="M7876 26194 c-85 -19 -174 -58 -257 -115 -74 -49 -212 -180 -271
-257 -22 -29 -42 -51 -44 -50 -1 2 17 95 42 208 24 113 44 206 44 207 0 2
-107 3 -238 3 l-238 0 -167 -792 c-93 -436 -189 -893 -216 -1016 l-47 -222
260 2 260 3 126 595 c69 327 129 607 133 621 10 40 125 158 204 210 114 74
281 128 449 144 l71 7 47 225 c26 124 45 228 41 231 -13 13 -133 11 -199 -4z"/>
<path d="M23846 26194 c-85 -19 -174 -58 -257 -115 -74 -49 -212 -180 -271
-257 -22 -29 -42 -51 -44 -50 -1 2 17 95 42 208 24 113 44 206 44 207 0 2
-107 3 -238 3 l-238 0 -167 -792 c-93 -436 -189 -893 -216 -1016 l-47 -222
260 2 260 3 126 595 c69 327 129 607 133 621 10 40 125 158 204 210 114 74
281 128 449 144 l71 7 47 225 c26 124 45 228 41 231 -13 13 -133 11 -199 -4z"/>
<path d="M31126 26194 c-85 -19 -174 -58 -257 -115 -74 -49 -212 -180 -271
-257 -22 -29 -42 -51 -44 -50 -1 2 17 95 42 208 24 113 44 206 44 207 0 2
-107 3 -238 3 l-238 0 -167 -792 c-93 -436 -189 -893 -216 -1016 l-47 -222
260 2 260 3 126 595 c69 327 129 607 133 621 10 40 125 158 204 210 114 74
281 128 449 144 l71 7 47 225 c26 124 45 228 41 231 -13 13 -133 11 -199 -4z"/>
<path d="M32796 26194 c-85 -19 -174 -58 -257 -115 -74 -49 -212 -180 -271
-257 -22 -29 -42 -51 -44 -50 -1 2 17 95 42 208 24 113 44 206 44 207 0 2
-107 3 -238 3 l-238 0 -167 -792 c-93 -436 -189 -893 -216 -1016 l-47 -222
260 2 260 3 126 595 c69 327 129 607 133 621 10 40 125 158 204 210 114 74
281 128 449 144 l71 7 47 225 c26 124 45 228 41 231 -13 13 -133 11 -199 -4z"/>
<path d="M40626 26194 c-85 -19 -174 -58 -257 -115 -74 -49 -212 -180 -271
-257 -22 -29 -42 -51 -44 -50 -1 2 17 95 42 208 24 113 44 206 44 207 0 2
-107 3 -238 3 l-238 0 -167 -792 c-93 -436 -189 -893 -216 -1016 l-47 -222
260 2 260 3 126 595 c69 327 129 607 133 621 10 40 125 158 204 210 114 74
281 128 449 144 l71 7 47 225 c26 124 45 228 41 231 -13 13 -133 11 -199 -4z"/>
<path d="M72996 26194 c-85 -19 -174 -58 -257 -115 -74 -49 -212 -180 -271
-257 -22 -29 -42 -51 -44 -50 -1 2 17 95 42 208 24 113 44 206 44 207 0 2
-107 3 -238 3 l-238 0 -167 -792 c-93 -436 -189 -893 -216 -1016 l-47 -222
260 2 260 3 126 595 c69 327 129 607 133 621 10 40 125 158 204 210 114 74
281 128 449 144 l71 7 47 225 c26 124 45 228 41 231 -13 13 -133 11 -199 -4z"/>
<path d="M10690 26063 c10 -71 71 -527 136 -1015 l118 -888 272 0 272 0 114
152 c369 497 652 987 831 1439 56 140 147 409 147 432 0 4 -107 7 -238 7
l-237 0 -19 -67 c-83 -297 -264 -717 -459 -1063 -78 -139 -273 -457 -285 -464
-4 -2 -34 336 -65 752 -32 416 -61 776 -64 800 l-5 42 -267 0 -268 0 17 -127z"/>
<path d="M53662 25517 c-78 -369 -147 -699 -153 -732 -6 -33 -9 -123 -7 -200
4 -114 9 -151 27 -197 50 -128 126 -200 255 -241 104 -32 310 -30 448 6 201
53 368 148 516 294 55 55 82 76 78 61 -4 -13 -10 -64 -13 -114 -5 -77 -3 -97
15 -137 45 -101 174 -141 365 -115 59 9 110 18 113 21 5 5 94 410 94 428 0 4
-11 10 -25 13 -39 10 -65 42 -65 80 0 19 70 362 155 761 85 399 155 730 155
735 0 6 -100 10 -257 10 l-258 0 -129 -613 c-71 -336 -138 -632 -149 -657 -13
-27 -60 -85 -121 -146 -80 -80 -118 -109 -182 -142 -237 -121 -420 -81 -465
101 -22 91 -6 200 125 817 69 327 128 605 131 618 l5 22 -257 0 -258 0 -143
-673z"/>
<path d="M68000 25143 c-122 -577 -231 -1070 -241 -1096 -39 -105 -157 -197
-254 -197 -61 0 -139 26 -172 58 l-29 27 -146 -177 -147 -177 47 -42 c105 -92
229 -133 407 -133 176 0 301 40 459 147 169 114 318 330 371 536 14 56 445
2083 445 2095 0 3 -116 6 -258 6 l-258 0 -224 -1047z"/>
<path d="M69940 23400 c-833 -47 -1742 -313 -2745 -805 -1465 -719 -2817
-1876 -4031 -3450 -937 -1214 -1782 -2719 -2414 -4300 -1003 -2509 -1464
-5146 -1279 -7323 125 -1486 534 -2669 1218 -3527 111 -139 346 -383 476 -495
346 -297 733 -519 1170 -669 259 -90 802 -214 1265 -290 835 -138 1671 -167
2415 -86 1960 215 3584 1194 4924 2965 1015 1342 1842 3039 2761 5665 309 882
990 2976 990 3043 0 71 -37 130 -105 164 l-39 21 -3021 -13 c-1661 -6 -3041
-15 -3066 -20 -134 -26 -264 -114 -340 -231 -16 -25 -409 -1017 -874 -2205
-716 -1829 -845 -2166 -845 -2208 0 -71 32 -131 88 -167 l46 -29 1085 0 c707
0 1099 -4 1123 -10 45 -13 95 -68 104 -116 8 -43 -7 -83 -107 -289 -164 -340
-393 -667 -640 -915 -426 -428 -921 -678 -1514 -767 -167 -25 -616 -25 -795 0
-326 45 -571 106 -715 176 -461 226 -728 753 -821 1623 -21 203 -29 698 -15
948 110 1882 811 3815 2004 5525 335 480 843 1109 1043 1292 442 405 923 700
1331 818 205 60 273 69 503 70 189 0 227 -3 318 -23 371 -83 570 -215 687
-457 63 -131 79 -207 72 -357 -3 -92 -13 -154 -36 -246 -35 -140 -37 -170 -16
-233 22 -64 67 -113 133 -146 l57 -28 2035 -3 c1369 -2 2058 1 2105 8 186 27
342 168 391 353 18 67 17 141 -1 357 -93 1068 -325 2137 -656 3028 -677 1817
-1716 2912 -3080 3247 -362 89 -792 127 -1189 105z"/>
<path d="M23878 23286 c-10954 -12 -19920 -25 -19924 -29 -4 -4 1 -7 12 -7 10
0 4634 -317 10274 -706 l10255 -706 2980 -1333 c1639 -734 3000 -1339 3025
-1344 30 -7 1379 -11 4118 -11 3411 0 4078 -2 4105 -14 45 -19 83 -60 103
-113 22 -58 13 -97 -61 -248 -248 -510 -728 -854 -1300 -931 -113 -16 -3793
-16 -22545 1 -3193 2 -5253 0 -5235 -5 17 -5 3481 -334 7700 -732 l7670 -722
2721 -1302 c1496 -716 2745 -1310 2775 -1321 52 -17 175 -18 3064 -23 l3010
-5 47 -28 c64 -37 101 -100 101 -171 0 -42 -11 -78 -52 -172 -206 -474 -570
-859 -1026 -1083 -209 -103 -407 -166 -655 -208 -100 -17 -567 -18 -10120 -23
-5508 -3 -10010 -6 -10005 -7 6 -1 2699 -339 5985 -750 l5974 -748 2337 -1211
c1284 -666 2369 -1225 2410 -1242 104 -43 223 -71 347 -83 59 -5 631 -21 1270
-35 994 -21 1169 -27 1203 -41 55 -22 115 -93 128 -151 13 -62 7 -88 -48 -212
-119 -267 -311 -500 -556 -675 -154 -110 -412 -226 -590 -265 -191 -42 98 -40
-6700 -55 -3553 -8 -6606 -15 -6784 -15 -178 0 -322 -2 -319 -5 3 -3 1393
-171 3089 -375 l3085 -369 2539 -1527 c1397 -840 2591 -1553 2653 -1585 210
-106 473 -179 720 -198 66 -6 1187 -11 2562 -13 2351 -3 2447 -2 2505 15 160
50 317 175 383 307 17 36 529 1435 1136 3111 607 1675 1115 3064 1129 3086 79
125 218 203 361 203 34 0 109 -6 167 -14 400 -56 927 -77 1349 -56 1631 84
3071 685 4385 1831 175 152 662 640 817 819 569 654 1025 1319 1429 2081 83
157 259 520 259 534 0 3 57 127 126 277 170 369 300 669 432 998 859 2146
1075 3872 646 5175 -280 850 -851 1512 -1668 1936 -550 285 -1185 461 -1841
509 -84 6 -522 9 -1090 8 -522 0 -9913 -11 -20867 -22z m19890 -4296 c125 -32
215 -82 302 -169 127 -126 204 -284 251 -517 27 -137 38 -498 20 -692 -45
-481 -175 -1007 -375 -1510 -426 -1072 -1039 -1703 -1804 -1858 -173 -35 -369
-43 -442 -19 -107 35 -189 156 -178 259 5 37 1569 4281 1623 4402 12 28 36 60
53 72 82 59 375 76 550 32z"/>
<path d="M52542 23205 c-114 -25 -208 -79 -297 -169 -48 -48 -93 -105 -112
-141 -18 -33 -1647 -4589 -3622 -10123 -3204 -8977 -3591 -10069 -3591 -10120
0 -74 39 -140 102 -174 l43 -23 2440 -3 c2708 -3 2506 -8 2655 64 86 41 209
158 252 240 15 27 576 1601 1247 3496 671 1896 1229 3464 1240 3485 27 53 76
97 141 127 l55 26 1955 0 c2150 0 2027 -3 2160 62 83 40 196 151 233 228 33
69 1317 4465 1317 4509 0 40 -24 87 -53 103 -18 10 -474 14 -2295 18 l-2274 5
-24 28 c-13 15 -24 39 -24 53 0 21 1215 3255 1271 3384 26 58 71 105 134 138
l50 27 2825 5 2825 5 53 22 c106 43 184 118 242 232 12 25 750 1008 1639 2185
l1616 2141 0 48 c0 43 -4 53 -36 82 l-36 33 -1714 6 c-943 3 -3658 8 -6034 11
-3691 4 -4329 2 -4383 -10z"/>
</g>
</svg>
